<?xml version="1.0" encoding="UTF-8"?>
<svg version="1.1" xmlns="http://www.w3.org/2000/svg" width="80" height="80">
<path d="M0 0 C26.4 0 52.8 0 80 0 C80 26.4 80 52.8 80 80 C53.6 80 27.2 80 0 80 C0 53.6 0 27.2 0 0 Z " fill="#FEFEFE" transform="translate(0,0)"/>
<path d="M0 0 C6.42712349 3.27732289 10.11104343 11.71695181 12.96875 18.00390625 C13.57203125 17.0396875 14.1753125 16.07546875 14.796875 15.08203125 C15.60389311 13.80581656 16.41120008 12.52978449 17.21875 11.25390625 C17.61449219 10.6196875 18.01023438 9.98546875 18.41796875 9.33203125 C22.82895598 2.3901497 22.82895598 2.3901497 25.96875 0.00390625 C28.52912735 0.06658969 29.56221284 0.6257068 31.42578125 2.359375 C38.31740803 11.67399449 45.31975262 23.42226204 45.15625 35.25390625 C45.14980469 36.2903125 45.14335938 37.32671875 45.13671875 38.39453125 C44.96875 41.00390625 44.96875 41.00390625 43.96875 43.00390625 C41.06107776 43.12021314 39.58095153 43.14215471 36.96875 42.00390625 C32.44284327 36.82101306 30.20412589 30.51224531 28.51171875 23.9375 C28.14171773 22.01367126 28.14171773 22.01367126 26.96875 21.00390625 C26.65421875 21.94492187 26.3396875 22.8859375 26.015625 23.85546875 C25.58765625 25.10070312 25.1596875 26.3459375 24.71875 27.62890625 C24.30109375 28.85867187 23.8834375 30.0884375 23.453125 31.35546875 C21.62070551 35.85936296 19.41226932 39.56038693 15.96875 43.00390625 C13.71875 43.56640625 13.71875 43.56640625 10.96875 43.00390625 C6.13917812 39.14273181 3.87321271 34.03168616 1.828125 28.3359375 C1.01442297 26.12784609 0.06019659 24.08627146 -1.03125 22.00390625 C-1.40636719 23.01710938 -1.78148438 24.0303125 -2.16796875 25.07421875 C-2.68428038 26.42601648 -3.20124234 27.77756595 -3.71875 29.12890625 C-3.96302734 29.7940625 -4.20730469 30.45921875 -4.45898438 31.14453125 C-6.30214413 35.90408301 -8.46910931 39.32302754 -12.03125 43.00390625 C-14.71875 43.56640625 -14.71875 43.56640625 -17.03125 43.00390625 C-19.95752407 38.61449514 -19.77155236 35.15981739 -19.03125 30.00390625 C-16.64224863 22.1567594 -9.48827509 0.01824668 0 0 Z " fill="#EF5614" transform="translate(27.03125,15.99609375)"/>
<path d="M0 0 C2.00219429 3.00329144 2.83120461 5.38350274 3.875 8.8125 C5.73725331 14.55908017 7.69818739 18.69818739 12 23 C14.41417872 23.58402133 14.41417872 23.58402133 17 23 C20.11803864 19.63836459 21.93445496 16.29976935 23.625 12.0625 C24.02976563 11.06347656 24.43453125 10.06445312 24.8515625 9.03515625 C25.98247997 6.04630294 27.01266444 3.03900074 28 0 C29.990161 2.98524149 30.82925791 5.34485634 31.875 8.75 C34.17976806 15.76351084 34.17976806 15.76351084 38 22 C40.3889644 23.14030482 42.35450033 23.54212506 45 24 C45.02707139 21.75006641 45.04642829 19.50003905 45.0625 17.25 C45.07410156 15.99703125 45.08570312 14.7440625 45.09765625 13.453125 C45.02021027 10.71463499 44.82780815 8.58119707 44 6 C45.32 6.33 46.64 6.66 48 7 C49.58084254 12.5329489 50.57598733 17.24012667 50 23 C48.5 25.5 48.5 25.5 46 27 C41.06832382 27.87497481 41.06832382 27.87497481 38 27 C33.3087167 23.43168608 30.98596736 18.40624447 29 13 C26.86762549 13.7937944 26.86762549 13.7937944 26.2890625 15.70703125 C25.96035156 16.74923828 25.96035156 16.74923828 25.625 17.8125 C23.8642665 22.78345972 21.36647551 25.08901633 17 28 C14.25 28.625 14.25 28.625 11 28 C6.01614611 23.82033485 3.3110997 18.96020449 1 13 C0.34 12.67 -0.32 12.34 -1 12 C-1.0928125 13.2684375 -1.0928125 13.2684375 -1.1875 14.5625 C-2.48933678 20.07027098 -5.31009264 23.87339509 -10 27 C-13.4375 27.4375 -13.4375 27.4375 -17 27 C-20.1190035 24.28086874 -20.93764029 22.82626618 -21.25 18.6875 C-21.1675 17.800625 -21.085 16.91375 -21 16 C-20.731875 16.598125 -20.46375 17.19625 -20.1875 17.8125 C-18.96145198 20.07100952 -18.06465419 21.47062652 -16 23 C-13.54327108 23.66685938 -13.54327108 23.66685938 -11 23 C-6.91409245 18.86436538 -5.21606916 14.03301421 -3.25 8.6875 C-2.93417969 7.85154297 -2.61835938 7.01558594 -2.29296875 6.15429688 C-1.5203913 4.10579605 -0.75637667 2.05452566 0 0 Z " fill="#F1E9ED" transform="translate(26,35)"/>
<path d="M0 0 C4.94050594 1.37236276 6.36058889 3.7428853 9 8 C9.63292969 8.58007812 10.26585937 9.16015625 10.91796875 9.7578125 C13.50367902 12.54242356 14.86559904 15.51576939 16.25 19 C16.51304932 19.65701904 16.77609863 20.31403809 17.04711914 20.9909668 C19.27931644 26.97603225 19.85667344 32.63459102 19 39 C18.67 39.66 18.34 40.32 18 41 C15.10429771 41.11582809 13.61196137 41.10587074 11 40 C3.17226114 31.8335609 -0.75799887 15.26003378 -1.125 4.25 C-1 1 -1 1 0 0 Z " fill="#F01FAC" transform="translate(53,18)"/>
<path d="M0 0 C0.38923653 3.32936242 0.70290874 6.66126011 1 10 C1.09152344 10.70640625 1.18304687 11.4128125 1.27734375 12.140625 C1.69034108 17.41893231 0.21676112 21.81498893 -1.6875 26.6875 C-1.93121338 27.31744873 -2.17492676 27.94739746 -2.42602539 28.59643555 C-4.33317603 33.16649118 -6.61609403 36.45495565 -10 40 C-12.6875 40.5625 -12.6875 40.5625 -15 40 C-17.92354582 35.61468127 -17.74989228 32.15143395 -17 27 C-8.50210526 -0 -8.50210526 -0 0 0 Z " fill="#EF22AB" transform="translate(25,19)"/>
<path d="M0 0 C4.32962245 1.68062978 6.58264047 6.10833277 9.11328125 9.8203125 C9.95632812 11.02494141 9.95632812 11.02494141 10.81640625 12.25390625 C13.01581386 15.87135298 14.4126495 18.31922487 13.5625 22.58203125 C12.84539028 24.45173186 12.07238633 26.30092015 11.24609375 28.125 C9.6048533 32.03002038 9.38895776 35.61624573 9.11328125 39.8203125 C0.86209396 33.33723677 -0.89089143 19.75280272 -2.29296875 9.9921875 C-2.5254599 7.9385157 -2.71219266 5.87972034 -2.88671875 3.8203125 C-4.20671875 4.8103125 -5.52671875 5.8003125 -6.88671875 6.8203125 C-3.67254552 -0.34976624 -3.67254552 -0.34976624 0 0 Z " fill="#FD9030" transform="translate(26.88671875,16.1796875)"/>
<path d="M0 0 C2.99338554 3.43572794 5.34477976 7.06235095 7.625 11 C8.21539062 12.010625 8.80578125 13.02125 9.4140625 14.0625 C10.83480612 16.69402513 12.10376661 19.14747221 13 22 C12.67 22.99 12.34 23.98 12 25 C8.3194756 21.93289633 6.73936978 17.60454742 4.78125 13.35742188 C2.69345216 8.98903405 0.22455504 5.61792859 -3 2 C-5.96175123 2.61277612 -7.38058783 3.25372522 -10 5 C-9.51851852 0.42592593 -9.51851852 0.42592593 -7.25 -1.4375 C-4.10011456 -2.22497136 -2.7981179 -1.60891779 0 0 Z " fill="#F7F2F3" transform="translate(59,15)"/>
<path d="M0 0 C4.2215914 1.32104221 5.93842126 2.7528092 8.25 6.5 C9.00023437 7.69109375 9.00023437 7.69109375 9.765625 8.90625 C10.55515183 10.2454474 11.3047587 11.60951741 12 13 C12.99 13.33 13.98 13.66 15 14 C15 13.34 15 12.68 15 12 C15.66 11.67 16.32 11.34 17 11 C17.72159424 9.35636866 18.39351421 7.68949614 19 6 C19.99 7.485 19.99 7.485 21 9 C18.69 12.96 16.38 16.92 14 21 C10.35394565 17.35394565 8.30120279 13.39613121 5.81640625 8.91015625 C4.10728035 6.17187927 2.28589994 4.2457083 0 2 C0 1.34 0 0.68 0 0 Z " fill="#F9F5F4" transform="translate(27,14)"/>
<path d="M0 0 C2.85946066 1.13329083 3.97394662 2.71429157 5.81640625 5.15625 C6.71939453 6.32607422 6.71939453 6.32607422 7.640625 7.51953125 C9.0399498 9.70482851 9.6940717 11.31011402 10.12890625 13.84375 C7.64709004 11.53920638 5.94071166 9.52806875 4.19140625 6.59375 C2.43159934 3.62784553 2.43159934 3.62784553 -0.37109375 3.28125 C-3.2001158 3.91777996 -4.71957653 4.93129025 -6.87109375 6.84375 C-3.66597266 -0.3061355 -3.66597266 -0.3061355 0 0 Z " fill="#A13528" transform="translate(26.87109375,16.15625)"/>
<path d="M0 0 C3 1 3 1 4.75 4.5 C5.6919271 6.42731828 5.6919271 6.42731828 7 8 C10.55107891 8.98407238 10.55107891 8.98407238 14 9 C14.66 9.33 15.32 9.66 16 10 C15.34 10.66 14.68 11.32 14 12 C9.36909356 12 7.5370015 11.52506813 4.1875 8.25 C2.33185276 5.49303839 1.01708829 3.14372743 0 0 Z " fill="#FCF1F9" transform="translate(57,49)"/>
<path d="M0 0 C3.58662938 1.79331469 4.2111047 6.32070005 5.5859375 9.921875 C7.03215177 13.06998784 8.73363865 15.39609547 11 18 C8.43569434 17.62899407 7.28752197 17.33994311 5.5859375 15.328125 C0 5.74193548 0 5.74193548 0 0 Z " fill="#FDF3EA" transform="translate(27,41)"/>
<path d="M0 0 C2.00993705 3.01490557 2.72623341 5.2149927 3.625 8.6875 C3.88539062 9.68136719 4.14578125 10.67523438 4.4140625 11.69921875 C4.60742188 12.45847656 4.80078125 13.21773437 5 14 C4.34 14 3.68 14 3 14 C2.01 12.02 1.02 10.04 0 8 C-0.66 8.99 -1.32 9.98 -2 11 C-1.85892253 9.54119891 -1.71197585 8.08296449 -1.5625 6.625 C-1.48128906 5.81289063 -1.40007813 5.00078125 -1.31640625 4.1640625 C-1 2 -1 2 0 0 Z " fill="#FDE0ED" transform="translate(54,35)"/>
<path d="M0 0 C2.74529296 1.08178831 3.67460926 2.48953286 5.3515625 4.890625 C5.87234375 5.62410156 6.393125 6.35757812 6.9296875 7.11328125 C7.31640625 7.67917969 7.703125 8.24507812 8.1015625 8.828125 C7.7715625 9.488125 7.4415625 10.148125 7.1015625 10.828125 C6.78703125 10.33441406 6.4725 9.84070312 6.1484375 9.33203125 C5.72046875 8.69136719 5.2925 8.05070312 4.8515625 7.390625 C4.43390625 6.75253906 4.01625 6.11445313 3.5859375 5.45703125 C1.79033147 3.48658989 0.74606604 3.03472684 -1.8984375 2.828125 C-4.65100544 4.67976536 -4.65100544 4.67976536 -6.8984375 6.828125 C-3.68788247 -0.33388236 -3.68788247 -0.33388236 0 0 Z " fill="#982130" transform="translate(54.8984375,16.171875)"/>
<path d="M0 0 C0.66 0.33 1.32 0.66 2 1 C2 5 2 5 0.6875 6.75 C-1 8 -1 8 -4 8 C-4.66 7.67 -5.32 7.34 -6 7 C-4.02 4.69 -2.04 2.38 0 0 Z " fill="#F6F2F1" transform="translate(48,52)"/>
<path d="M0 0 C1.9451 2.91765 2.45276317 4.62537285 3 8 C1.68 7.01 0.36 6.02 -1 5 C-1.103125 5.94875 -1.20625 6.8975 -1.3125 7.875 C-2 11 -2 11 -5 13 C-4.54554036 11.58208592 -4.08625056 10.16571954 -3.625 8.75 C-3.24214844 7.56664062 -3.24214844 7.56664062 -2.8515625 6.359375 C-2.04826333 4.13372042 -1.10288338 2.09068328 0 0 Z " fill="#EAEAEA" transform="translate(26,42)"/>
<path d="M0 0 C0.33 0 0.66 0 1 0 C1.36923077 7.50769231 1.36923077 7.50769231 -0.5 10 C-0.995 10.33 -1.49 10.66 -2 11 C-2.95465783 8.83032311 -3.14401212 7.43671207 -2.3984375 5.17578125 C-1.64129615 3.4315257 -0.82390802 1.71372869 0 0 Z " fill="#F4E6E1" transform="translate(51,44)"/>
</svg>
