<?xml version="1.0" standalone="no"?>
<!DOCTYPE svg PUBLIC "-//W3C//DTD SVG 20010904//EN"
 "http://www.w3.org/TR/2001/REC-SVG-20010904/DTD/svg10.dtd">
<svg version="1.0" xmlns="http://www.w3.org/2000/svg"
 width="80.000000pt" height="80.000000pt" viewBox="0 0 80.000000 80.000000"
 preserveAspectRatio="xMidYMid meet">
<metadata>
Created by potrace 1.16, written by Peter Selinger 2001-2019
</metadata>
<g transform="translate(0.000000,80.000000) scale(0.100000,-0.100000)"
fill="#000000" stroke="none">
<path d="M216 599 c-64 -75 -136 -250 -136 -329 0 -72 62 -78 105 -10 14 22
36 73 50 114 21 64 24 86 19 145 -11 117 9 127 72 35 41 -59 53 -69 30 -26
-26 50 -76 112 -90 112 -8 0 -30 -18 -50 -41z"/>
<path d="M500 603 c-58 -66 -140 -264 -140 -338 0 -12 6 -29 13 -40 35 -46
103 26 143 150 8 28 18 57 21 65 2 8 17 -23 33 -68 41 -121 97 -184 135 -152
18 15 20 87 4 145 -26 96 -133 275 -164 275 -7 0 -28 -17 -45 -37z"/>
</g>
</svg>
